<svg style="overflow: hidden; position: relative;" xmlns="http://www.w3.org/2000/svg" xmlns:xlink="http://www.w3.org/1999/xlink" width="540" version="1.1" height="382"><rect transform="matrix(1,0,0,1,0,0)" x="0" y="0" width="540" height="382" rx="0" ry="0" fill="#fff" stroke="#fff"></rect><path transform="matrix(1,0,0,1,0,0)" fill="#eee" stroke="#000" d="M0,0Q0,0,0,0L540,0Q540,0,540,0L540,34Q540,34,540,34L0,34Q0,34,0,34Z" stroke-width="0"></path><text transform="matrix(1,0,0,1,0,0)" style="text-anchor: start; font: normal normal bold 10px/normal ;" x="10" y="8" text-anchor="start" font-family="Arial" font-size="10px" stroke="none" fill="black" font-weight="bold"><tspan dy="3.634615384615385">Narok town, Narok county, Kenya</tspan></text><text transform="matrix(1,0,0,1,0,0)" style="text-anchor: start; font: normal normal bold 8px/normal ;" x="366" y="12" text-anchor="start" font-family="Arial" font-size="8px" stroke="none" fill="black" font-weight="bold"><tspan dy="2.907692307692308">Date prepared: 21 Sep 2022</tspan></text><text transform="matrix(1,0,0,1,0,0)" style="text-anchor: start; font: normal normal bold 8px/normal ;" x="366" y="24" text-anchor="start" font-family="Arial" font-size="8px" stroke="none" fill="black" font-weight="bold"><tspan dy="2.907692307692308">Prepared by: University of Leeds</tspan></text><text transform="matrix(1,0,0,1,0,0)" style="text-anchor: start; font: normal normal bold 8px/normal ;" x="10" y="19" text-anchor="start" font-family="Arial" font-size="8px" stroke="none" fill="black" font-weight="bold"><tspan dy="2.907692307692308">Version: Reviewed</tspan></text><text transform="matrix(1,0,0,1,0,0)" style="text-anchor: start; font: normal normal bold 8px/normal ;" x="10" y="28" text-anchor="start" font-family="Arial" font-size="8px" stroke="none" fill="black" font-weight="bold"><tspan dy="2.907692307692308">SFD Level: SFD Lite</tspan></text><path transform="matrix(1,0,0,1,0,0)" fill="#eee" stroke="#000" d="M0,297Q0,297,0,297L540,297Q540,297,540,297L540,350Q540,350,540,350L0,350Q0,350,0,350Z" stroke-width="0"></path><path transform="matrix(1,0,0,1,0,0)" fill="#eee" stroke="#000" d="M0,354Q0,354,0,354L540,354Q540,354,540,354L540,366Q540,366,540,366L0,366Q0,366,0,366Z" stroke-width="0"></path><text transform="matrix(1,0,0,1,0,0)" style="text-anchor: middle; font: normal normal bold 6px/normal ;" x="110" y="360" text-anchor="middle" font-family="&quot;Arial&quot;" font-size="6px" stroke="none" fill="black" font-weight="bold"><tspan dy="2.180769230769231">WW: Wastewater, FS: Faecal sludge, SN:  Supernatant</tspan></text><path transform="matrix(1,0,0,1,0,0)" fill="limegreen" stroke="#000" d="M207,356Q207,356,207,356L231,356Q231,356,231,356L231,364Q231,364,231,364L207,364Q207,364,207,364Z" stroke-width="0.5"></path><text transform="matrix(1,0,0,1,0,0)" style="text-anchor: start; font: normal normal bold 6px/normal ;" x="235" y="360" text-anchor="start" font-family="&quot;Arial&quot;" font-size="6px" stroke="none" fill="black" font-weight="bold"><tspan dy="2.180769230769231">Safely managed</tspan></text><path transform="matrix(1,0,0,1,0,0)" fill="red" stroke="#000" d="M321,356Q321,356,321,356L345,356Q345,356,345,356L345,364Q345,364,345,364L321,364Q321,364,321,364Z" stroke-width="0.5"></path><text transform="matrix(1,0,0,1,0,0)" style="text-anchor: start; font: normal normal bold 6px/normal ;" x="349" y="360" text-anchor="start" font-family="&quot;Arial&quot;" font-size="6px" stroke="none" fill="black" font-weight="bold"><tspan dy="2.180769230769231">Unsafely managed</tspan></text><text transform="matrix(1,0,0,1,0,0)" style="text-anchor: start; font: normal normal normal 5px/normal ;" x="6" y="372" text-anchor="start" font-family="&quot;Arial&quot;" font-size="5px" stroke="none" fill="black" font-weight="normal"><tspan dy="1.8173076923076925">Produced with support from the SFD Promotion Initiative with funding from the Bill &amp; Melinda Gates Foundation.</tspan></text><text transform="matrix(1,0,0,1,0,0)" style="text-anchor: start; font: normal normal normal 5px/normal ;" x="6" y="378" text-anchor="start" font-family="&quot;Arial&quot;" font-size="5px" stroke="none" fill="black" font-weight="normal"><tspan dy="1.8173076923076925">The SFD Promotion Initiative recommends that this graphic is read in conjunction with the city’s SFD Report which is available at sfd.susana.org</tspan></text><path transform="matrix(1,0,0,1,0,0)" fill="#eee" stroke="white" d="M490,40Q490,40,490,40L540,40Q540,40,540,40L540,296Q540,296,540,296L490,296Q490,296,490,296Z" stroke-width="0"></path><path transform="matrix(1,0,0,1,0,0)" fill="white" stroke="black" d="M494,272.5Q494,272,494.5,272L535.5,272Q536,272,536,272.5L536,291.5Q536,292,535.5,292L494.5,292Q494,292,494,291.5Z" stroke-width="2"></path><text transform="matrix(1,0,0,1,0,0)" style="text-anchor: middle; font: normal normal bold 12px/normal ;" x="515" y="282" text-anchor="middle" font-family="&quot;Arial&quot;" font-size="12px" stroke="none" fill="limegreen" font-weight="bold"><tspan dy="4.361538461538462">60%</tspan></text><path transform="matrix(1,0,0,1,0,0)" fill="white" stroke="black" d="M494,304.5Q494,304,494.5,304L535.5,304Q536,304,536,304.5L536,323.5Q536,324,535.5,324L494.5,324Q494,324,494,323.5Z" stroke-width="2"></path><text transform="matrix(1,0,0,1,0,0)" style="text-anchor: middle; font: normal normal bold 12px/normal ;" x="515" y="314" text-anchor="middle" font-family="&quot;Arial&quot;" font-size="12px" stroke="none" fill="red" font-weight="bold"><tspan dy="4.361538461538462">40%</tspan></text><path transform="matrix(1,0,0,1,0,40)" fill="#eee" stroke="#000" d="M0,0L114.36029765733798,0L118,10L114.36029765733798,20L0,20Z" stroke-width="0"></path><text transform="matrix(1,0,0,1,0,40)" style="text-anchor: start; font: normal normal bold 8px/normal ;" x="5" y="11" text-anchor="start" font-family="&quot;Arial&quot;" font-size="8px" stroke="none" fill="black" font-weight="bold"><tspan dy="2.907692307692308">Containment</tspan></text><path transform="matrix(1,0,0,1,122,40)" fill="#eee" stroke="#000" d="M0,0L114.36029765733798,0L118,10L114.36029765733798,20L0,20Z" stroke-width="0"></path><text transform="matrix(1,0,0,1,122,40)" style="text-anchor: start; font: normal normal bold 8px/normal ;" x="5" y="11" text-anchor="start" font-family="&quot;Arial&quot;" font-size="8px" stroke="none" fill="black" font-weight="bold"><tspan dy="2.907692307692308">Emptying</tspan></text><path transform="matrix(1,0,0,1,244,40)" fill="#eee" stroke="#000" d="M0,0L114.36029765733798,0L118,10L114.36029765733798,20L0,20Z" stroke-width="0"></path><text transform="matrix(1,0,0,1,244,40)" style="text-anchor: start; font: normal normal bold 8px/normal ;" x="5" y="11" text-anchor="start" font-family="&quot;Arial&quot;" font-size="8px" stroke="none" fill="black" font-weight="bold"><tspan dy="2.907692307692308">Transport</tspan></text><path transform="matrix(1,0,0,1,366,40)" fill="#eee" stroke="#000" d="M0,0L116.36029765733798,0L120,10L116.36029765733798,20L0,20Z" stroke-width="0"></path><text transform="matrix(1,0,0,1,366,40)" style="text-anchor: start; font: normal normal bold 8px/normal ;" x="5" y="11" text-anchor="start" font-family="&quot;Arial&quot;" font-size="8px" stroke="none" fill="black" font-weight="bold"><tspan dy="2.907692307692308">Treatment</tspan></text><ellipse transform="matrix(1,0,0,1,306,337.5)" cx="0" cy="0" rx="184" ry="6.25" fill="red" stroke="white" stroke-width="0.5"></ellipse><text transform="matrix(1,0,0,1,306,337.5)" style="text-anchor: middle; font: normal normal normal 6px/normal ;" x="0" y="0" text-anchor="middle" font-family="&quot;Arial&quot;" font-size="6px" stroke="none" fill="white"><tspan dy="2.180769230769231">Neighbourhood</tspan></text><text transform="matrix(1,0,0,1,306,337.5)" style="text-anchor: middle; font: normal normal normal 6px/normal ;" x="-92" y="0" text-anchor="middle" font-family="&quot;Arial&quot;" font-size="6px" stroke="none" fill="white"><tspan dy="2.180769230769231">Local area</tspan></text><text transform="matrix(1,0,0,1,306,337.5)" style="text-anchor: middle; font: normal normal normal 6px/normal ;" x="92" y="0" text-anchor="middle" font-family="&quot;Arial&quot;" font-size="6px" stroke="none" fill="white"><tspan dy="2.180769230769231">City</tspan></text><rect transform="matrix(1,0,0,1,0,70.9714)" x="0" y="-2.9713775484895137" width="48" height="5.942755096979017" rx="0" ry="0" fill="white" stroke="black" stroke-width="0.5"></rect><text transform="matrix(1,0,0,1,0,70.9714)" style="text-anchor: start; font: normal normal bold 5px/normal ;" x="3" y="0" text-anchor="start" font-family="Arial" font-size="5px" stroke="none" fill="black" font-weight="bold"><tspan dy="1.8173076923076925">Offsite sanitation </tspan></text><rect transform="matrix(1,0,0,1,0,155.296)" x="0" y="-81.35324172826033" width="48" height="162.70648345652066" rx="0" ry="0" fill="white" stroke="black" stroke-width="0.5"></rect><text transform="matrix(1,0,0,1,0,155.296)" style="text-anchor: start; font: normal normal bold 5px/normal ;" x="3" y="0" text-anchor="start" font-family="Arial" font-size="5px" stroke="none" fill="black" font-weight="bold"><tspan dy="1.8173076923076925">Onsite sanitation</tspan></text><rect transform="matrix(1,0,0,1,0,252.3246)" x="0" y="-15.675380723250157" width="48" height="31.35076144650032" rx="0" ry="0" fill="white" stroke="black" stroke-width="0.5"></rect><text transform="matrix(1,0,0,1,0,252.3246)" style="text-anchor: start; font: normal normal bold 5px/normal ;" x="3" y="0" text-anchor="start" font-family="Arial" font-size="5px" stroke="none" fill="black" font-weight="bold"><tspan dy="1.8173076923076925">Open defecation</tspan></text><path transform="matrix(1,0,0,1,0,70.0834)" fill="limegreen" stroke="white" d="M52,-2.0834366784066702L117.44174482453955,-2.0834366784066702L118,-3.552713678800501e-15L117.44174482453955,2.083436678406663L52,2.083436678406663Z" stroke-width="1"></path><path transform="matrix(1,0,0,1,0,133.6679)" fill="limegreen" stroke="white" d="M52,-59.725184780991114L108,-59.725184780991114L118,-7.105427357601002e-15L108,59.7251847809911L52,59.7251847809911Z" stroke-width="1"></path><text transform="matrix(1,0,0,1,0,133.6679)" style="text-anchor: start; font: normal normal bold 5px/normal ;" x="55" y="-1" text-anchor="start" font-family="Arial" font-size="5px" stroke="none" fill="black" font-weight="bold"><tspan dy="1.8173076923076925">FS contained: 60%</tspan></text><path transform="matrix(1,0,0,1,0,215.0212)" fill="red" stroke="white" d="M52,-21.628056947269215L112.20477960712489,-21.628056947269215L118.00000000000001,-7.105427357601002e-15L112.20477960712489,21.6280569472692L52.00000000000001,21.6280569472692Z" stroke-width="1"></path><text transform="matrix(1,0,0,1,0,215.0212)" style="text-anchor: start; font: normal normal bold 5px/normal ;" x="55" y="-1" text-anchor="start" font-family="Arial" font-size="5px" stroke="none" fill="black" font-weight="bold"><tspan dy="1.8173076923076925">FS not contained: 22%</tspan></text><path transform="matrix(1,0,0,1,0,69.9842)" fill="limegreen" stroke="white" d="M122,-1.9842254080063526L361.4683284043234,-1.9842254080063526L362.00000000000006,-3.3306690738754696e-15L361.4683284043234,1.984225408006346L122.00000000000003,1.984225408006346Z" stroke-width="1"></path><rect transform="matrix(1,0,0,1,0,312.5)" x="332.00788729599685" y="-12.5" width="30" height="25" rx="0" ry="0" fill="#eee" stroke="black" stroke-width="0" opacity="0"></rect><text transform="matrix(1,0,0,1,0,312.5)" style="text-anchor: middle; font: normal normal bold 5px/normal ;" x="347.00788729599685" y="0" text-anchor="middle" font-family="Arial" font-size="5px" stroke="none" fill="black" font-weight="bold"><tspan dy="-10.298076923076923">1% </tspan></text>,<text transform="matrix(1,0,0,1,0,312.5)" style="text-anchor: middle; font: normal normal bold 5px/normal ;" x="347.00788729599685" y="0" text-anchor="middle" font-family="Arial" font-size="5px" stroke="none" fill="black" font-weight="bold"><tspan dy="-4.240384615384615">WW not </tspan></text>,<text transform="matrix(1,0,0,1,0,312.5)" style="text-anchor: middle; font: normal normal bold 5px/normal ;" x="347.00788729599685" y="0" text-anchor="middle" font-family="Arial" font-size="5px" stroke="none" fill="black" font-weight="bold"><tspan dy="1.8173076923076912">delivered </tspan></text>,<text transform="matrix(1,0,0,1,0,312.5)" style="text-anchor: middle; font: normal normal bold 5px/normal ;" x="347.00788729599685" y="0" text-anchor="middle" font-family="Arial" font-size="5px" stroke="none" fill="black" font-weight="bold"><tspan dy="7.875">to </tspan></text>,<text transform="matrix(1,0,0,1,0,312.5)" style="text-anchor: middle; font: normal normal bold 5px/normal ;" x="347.00788729599685" y="0" text-anchor="middle" font-family="Arial" font-size="5px" stroke="none" fill="black" font-weight="bold"><tspan dy="13.932692307692308">treatment </tspan></text><path transform="matrix(1,0,0,1,0,105.6804)" fill="limegreen" stroke="white" d="M122,-31.737685401061555L477.49591282715255,-31.737685401061555L486,3.552713678800501e-15L477.49591282715255,31.73768540106156L122,31.73768540106156Z" stroke-width="1"></path><text transform="matrix(1,0,0,1,0,105.6804)" style="text-anchor: start; font: normal normal bold 5px/normal ;" x="125" y="-1" text-anchor="start" font-family="Arial" font-size="5px" stroke="none" fill="black" font-weight="bold"><tspan dy="1.8173076923076925">FS contained - not emptied: 32%</tspan></text><rect transform="matrix(1,0,0,1,0,105.6804)" x="495" y="-7.5" width="40" height="15" rx="0" ry="0" fill="#eee" stroke="black" stroke-width="0" opacity="0"></rect><text transform="matrix(1,0,0,1,0,105.6804)" style="text-anchor: start; font: normal normal bold 5px/normal ;" x="497" y="0" text-anchor="start" font-family="Arial" font-size="5px" stroke="none" fill="black" font-weight="bold"><tspan dy="-4.240384615384615">32% FS </tspan></text>,<text transform="matrix(1,0,0,1,0,105.6804)" style="text-anchor: start; font: normal normal bold 5px/normal ;" x="497" y="0" text-anchor="start" font-family="Arial" font-size="5px" stroke="none" fill="black" font-weight="bold"><tspan dy="1.8173076923076925">contained - not </tspan></text>,<text transform="matrix(1,0,0,1,0,105.6804)" style="text-anchor: start; font: normal normal bold 5px/normal ;" x="497" y="0" text-anchor="start" font-family="Arial" font-size="5px" stroke="none" fill="black" font-weight="bold"><tspan dy="7.875">emptied </tspan></text><path transform="matrix(1,0,0,1,0,165.4056)" fill="limegreen" stroke="white" d="M122,-27.987499379929545L232.50077214298133,-27.987499379929545L240,1.0658141036401503e-14L232.50077214298133,27.987499379929567L122,27.987499379929567Z" stroke-width="1"></path><text transform="matrix(1,0,0,1,0,165.4056)" style="text-anchor: start; font: normal normal bold 5px/normal ;" x="125" y="-1" text-anchor="start" font-family="Arial" font-size="5px" stroke="none" fill="black" font-weight="bold"><tspan dy="1.8173076923076925">FS contained - emptied: 28%</tspan></text><path transform="matrix(1,0,0,1,0,164.8302)" fill="limegreen" stroke="white" d="M244,-27.4120740116077L354.65495690572754,-27.4120740116077L362,1.4210854715202004e-14L354.65495690572754,27.41207401160773L244,27.41207401160773Z" stroke-width="1"></path><path transform="matrix(1,0,0,1,0,201.4788)" fill="red" stroke="white" d="M122,-8.085718537625866L237.83343824761778,-8.085718537625866L240,7.105427357601002e-15L237.83343824761778,8.08571853762588L121.99999999999999,8.08571853762588Z" stroke-width="1"></path><text transform="matrix(1,0,0,1,0,201.4788)" style="text-anchor: start; font: normal normal bold 5px/normal ;" x="125" y="-1" text-anchor="start" font-family="Arial" font-size="5px" stroke="none" fill="black" font-weight="bold"><tspan dy="1.8173076923076925">FS not contained - emptied: 8%</tspan></text><path transform="matrix(1,0,0,1,0,200.9034)" fill="red" stroke="white" d="M244,-8.661143905947714L285.3433622699539,-8.661143905947714A17.32228781189543,17.32228781189543,0,0,1,302.6656500818493,8.661143905947714L302.6656500818493,92.77583565660629L294.0045061759016,95.09658217173472L285.3433622699539,92.77583565660629L285.3433622699539,8.66114390594771L244,8.66114390594771Z" stroke-width="1"></path><text transform="matrix(1,0,0,1,0,200.9034)" style="text-anchor: start; font: normal normal bold 5px/normal ;" x="247" y="0" text-anchor="start" font-family="Arial" font-size="5px" stroke="none" fill="black" font-weight="bold"><tspan dy="1.8173076923076925"> </tspan></text><rect transform="matrix(1,0,0,1,0,312.5)" x="279.0045061759016" y="-12.5" width="30" height="25" rx="0" ry="0" fill="#eee" stroke="black" stroke-width="0" opacity="0"></rect><text transform="matrix(1,0,0,1,0,312.5)" style="text-anchor: middle; font: normal normal bold 5px/normal ;" x="294.0045061759016" y="0" text-anchor="middle" font-family="Arial" font-size="5px" stroke="none" fill="black" font-weight="bold"><tspan dy="-10.298076923076923">9%</tspan></text>,<text transform="matrix(1,0,0,1,0,312.5)" style="text-anchor: middle; font: normal normal bold 5px/normal ;" x="294.0045061759016" y="0" text-anchor="middle" font-family="Arial" font-size="5px" stroke="none" fill="black" font-weight="bold"><tspan dy="-4.240384615384615">FS not </tspan></text>,<text transform="matrix(1,0,0,1,0,312.5)" style="text-anchor: middle; font: normal normal bold 5px/normal ;" x="294.0045061759016" y="0" text-anchor="middle" font-family="Arial" font-size="5px" stroke="none" fill="black" font-weight="bold"><tspan dy="1.8173076923076912">delivered </tspan></text>,<text transform="matrix(1,0,0,1,0,312.5)" style="text-anchor: middle; font: normal normal bold 5px/normal ;" x="294.0045061759016" y="0" text-anchor="middle" font-family="Arial" font-size="5px" stroke="none" fill="black" font-weight="bold"><tspan dy="7.875">to </tspan></text>,<text transform="matrix(1,0,0,1,0,312.5)" style="text-anchor: middle; font: normal normal bold 5px/normal ;" x="294.0045061759016" y="0" text-anchor="middle" font-family="Arial" font-size="5px" stroke="none" fill="black" font-weight="bold"><tspan dy="13.932692307692308">treatment </tspan></text><path transform="matrix(1,0,0,1,0,223.1069)" fill="red" stroke="white" d="M122,-13.542338409643333L208.91532318071333,-13.542338409643333A27.084676819286667,27.084676819286667,0,0,1,236,13.542338409643333L236,69.26444121565076L222.45766159035668,72.89309985614366L208.91532318071336,69.26444121565076L208.91532318071336,13.542338409643328L122.00000000000003,13.542338409643328Z" stroke-width="1"></path><text transform="matrix(1,0,0,1,0,223.1069)" style="text-anchor: start; font: normal normal bold 5px/normal ;" x="125" y="0" text-anchor="start" font-family="Arial" font-size="5px" stroke="none" fill="black" font-weight="bold"><tspan dy="1.8173076923076925"> </tspan></text><rect transform="matrix(1,0,0,1,0,312.5)" x="207.45766159035668" y="-12.5" width="30" height="25" rx="0" ry="0" fill="#eee" stroke="black" stroke-width="0" opacity="0"></rect><text transform="matrix(1,0,0,1,0,312.5)" style="text-anchor: middle; font: normal normal bold 5px/normal ;" x="222.45766159035668" y="0" text-anchor="middle" font-family="Arial" font-size="5px" stroke="none" fill="black" font-weight="bold"><tspan dy="-10.298076923076923">14%</tspan></text>,<text transform="matrix(1,0,0,1,0,312.5)" style="text-anchor: middle; font: normal normal bold 5px/normal ;" x="222.45766159035668" y="0" text-anchor="middle" font-family="Arial" font-size="5px" stroke="none" fill="black" font-weight="bold"><tspan dy="-4.240384615384615">FS not </tspan></text>,<text transform="matrix(1,0,0,1,0,312.5)" style="text-anchor: middle; font: normal normal bold 5px/normal ;" x="222.45766159035668" y="0" text-anchor="middle" font-family="Arial" font-size="5px" stroke="none" fill="black" font-weight="bold"><tspan dy="1.8173076923076912">contained </tspan></text>,<text transform="matrix(1,0,0,1,0,312.5)" style="text-anchor: middle; font: normal normal bold 5px/normal ;" x="222.45766159035668" y="0" text-anchor="middle" font-family="Arial" font-size="5px" stroke="none" fill="black" font-weight="bold"><tspan dy="7.875">- not </tspan></text>,<text transform="matrix(1,0,0,1,0,312.5)" style="text-anchor: middle; font: normal normal bold 5px/normal ;" x="222.45766159035668" y="0" text-anchor="middle" font-family="Arial" font-size="5px" stroke="none" fill="black" font-weight="bold"><tspan dy="13.932692307692308">emptied </tspan></text><path transform="matrix(1,0,0,1,0,252.3246)" fill="red" stroke="white" d="M52,-15.675380723250159L137.7783124162905,-15.675380723250159A31.350761446500318,31.350761446500318,0,0,1,169.12907386279082,15.675380723250159L169.12907386279082,39.47517511740489L153.45369313954066,43.67538072325016L137.7783124162905,39.47517511740489L137.7783124162905,15.675380723250157L52,15.675380723250157Z" stroke-width="1"></path><text transform="matrix(1,0,0,1,0,252.3246)" style="text-anchor: start; font: normal normal bold 5px/normal ;" x="55" y="0" text-anchor="start" font-family="Arial" font-size="5px" stroke="none" fill="black" font-weight="bold"><tspan dy="1.8173076923076925">16%</tspan></text><rect transform="matrix(1,0,0,1,0,312.5)" x="138.45369313954066" y="-12.5" width="30" height="25" rx="0" ry="0" fill="#eee" stroke="black" stroke-width="0" opacity="0"></rect><text transform="matrix(1,0,0,1,0,312.5)" style="text-anchor: middle; font: normal normal bold 5px/normal ;" x="153.45369313954066" y="0" text-anchor="middle" font-family="Arial" font-size="5px" stroke="none" fill="black" font-weight="bold"><tspan dy="-4.240384615384615">16%</tspan></text>,<text transform="matrix(1,0,0,1,0,312.5)" style="text-anchor: middle; font: normal normal bold 5px/normal ;" x="153.45369313954066" y="0" text-anchor="middle" font-family="Arial" font-size="5px" stroke="none" fill="black" font-weight="bold"><tspan dy="1.8173076923076925">Open </tspan></text>,<text transform="matrix(1,0,0,1,0,312.5)" style="text-anchor: middle; font: normal normal bold 5px/normal ;" x="153.45369313954066" y="0" text-anchor="middle" font-family="Arial" font-size="5px" stroke="none" fill="black" font-weight="bold"><tspan dy="7.875">defecation </tspan></text><path transform="matrix(1,0,0,1,0,69.885)" fill="limegreen" stroke="white" d="M366,-1.885014137606035L485.4949119841072,-1.885014137606035L486,-3.3306690738754696e-15L485.4949119841072,1.8850141376060283L366,1.8850141376060283Z" stroke-width="1"></path><rect transform="matrix(1,0,0,1,0,69.885)" x="495" y="-7.5" width="40" height="15" rx="0" ry="0" fill="#eee" stroke="black" stroke-width="0" opacity="0"></rect><text transform="matrix(1,0,0,1,0,69.885)" style="text-anchor: start; font: normal normal bold 5px/normal ;" x="497" y="0" text-anchor="start" font-family="Arial" font-size="5px" stroke="none" fill="black" font-weight="bold"><tspan dy="1.8173076923076925">2% WW treated </tspan></text><rect transform="matrix(1,0,0,1,0,312.5)" x="458.00788729599685" y="-12.5" width="30" height="25" rx="0" ry="0" fill="#eee" stroke="black" stroke-width="0" opacity="0"></rect><text transform="matrix(1,0,0,1,0,312.5)" style="text-anchor: middle; font: normal normal bold 5px/normal ;" x="473.00788729599685" y="0" text-anchor="middle" font-family="Arial" font-size="5px" stroke="none" fill="black" font-weight="bold"><tspan dy="-4.240384615384615">1%</tspan></text>,<text transform="matrix(1,0,0,1,0,312.5)" style="text-anchor: middle; font: normal normal bold 5px/normal ;" x="473.00788729599685" y="0" text-anchor="middle" font-family="Arial" font-size="5px" stroke="none" fill="black" font-weight="bold"><tspan dy="1.8173076923076925">WW not </tspan></text>,<text transform="matrix(1,0,0,1,0,312.5)" style="text-anchor: middle; font: normal normal bold 5px/normal ;" x="473.00788729599685" y="0" text-anchor="middle" font-family="Arial" font-size="5px" stroke="none" fill="black" font-weight="bold"><tspan dy="7.875">treated </tspan></text><path transform="matrix(1,0,0,1,0,163.4611)" fill="limegreen" stroke="white" d="M366,-26.042958480083342L479.02181030674444,-26.042958480083342L486.00000000000006,-7.105427357601002e-15L479.02181030674444,26.04295848008333L366,26.04295848008333Z" stroke-width="1"></path><text transform="matrix(1,0,0,1,0,163.4611)" style="text-anchor: start; font: normal normal bold 5px/normal ;" x="369" y="-1" text-anchor="start" font-family="Arial" font-size="5px" stroke="none" fill="black" font-weight="bold"><tspan dy="1.8173076923076925"> </tspan></text><rect transform="matrix(1,0,0,1,0,163.4611)" x="495" y="-7.5" width="40" height="15" rx="0" ry="0" fill="#eee" stroke="black" stroke-width="0" opacity="0"></rect><text transform="matrix(1,0,0,1,0,163.4611)" style="text-anchor: start; font: normal normal bold 5px/normal ;" x="497" y="0" text-anchor="start" font-family="Arial" font-size="5px" stroke="none" fill="black" font-weight="bold"><tspan dy="1.8173076923076925">26% FS treated </tspan></text><path transform="matrix(1,0,0,1,0,190.8732)" fill="red" stroke="white" d="M366,-1.3691155315243808L425.64046867404136,-1.3691155315243808A2.7382310630487616,2.7382310630487616,0,0,1,428.37869973709013,1.3691155315243808L428.37869973709013,104.88542960129207L427.0095842055658,105.12684160920683L425.6404686740414,104.88542960129207L425.6404686740414,1.3691155315243861L366.00000000000006,1.3691155315243861Z" stroke-width="1"></path><rect transform="matrix(1,0,0,1,0,312.5)" x="412.0095842055658" y="-12.5" width="30" height="25" rx="0" ry="0" fill="#eee" stroke="black" stroke-width="0" opacity="0"></rect><text transform="matrix(1,0,0,1,0,312.5)" style="text-anchor: middle; font: normal normal bold 5px/normal ;" x="427.0095842055658" y="0" text-anchor="middle" font-family="Arial" font-size="5px" stroke="none" fill="black" font-weight="bold"><tspan dy="-1.2115384615384612">1% FS not </tspan></text>,<text transform="matrix(1,0,0,1,0,312.5)" style="text-anchor: middle; font: normal normal bold 5px/normal ;" x="427.0095842055658" y="0" text-anchor="middle" font-family="Arial" font-size="5px" stroke="none" fill="black" font-weight="bold"><tspan dy="4.846153846153847">treated </tspan></text><path transform="matrix(1,0,0,1,0,72.9606)" fill="red" stroke="white" d="M122,-0.9921127040031746L346.01577459199365,-0.9921127040031746A1.9842254080063493,1.9842254080063493,0,0,1,348,0.9921127040031746L348,222.7736006821458L347.00788729599685,223.03943647998412L346.0157745919937,222.7736006821458L346.0157745919937,0.9921127040031763L122.00000000000006,0.9921127040031763Z" stroke-width="1"></path><path transform="matrix(1,0,0,1,0,72.7621)" fill="red" stroke="white" d="M366,-0.9921127040031746L472.01577459199365,-0.9921127040031746A1.9842254080063493,1.9842254080063493,0,0,1,474,0.9921127040031746L474,222.97202322294643L473.00788729599685,223.23785902078475L472.0157745919937,222.97202322294643L472.0157745919937,0.9921127040031763L366.00000000000006,0.9921127040031763Z" stroke-width="1"></path><text transform="matrix(1,0,0,1,0,164.8302)" style="text-anchor: start; font: normal normal bold 5px/normal ;" x="247" y="-1" text-anchor="start" font-family="Arial" font-size="5px" stroke="none" fill="black" font-weight="bold"><tspan dy="1.8173076923076925">FS delivered to treatment: 28%</tspan></text></svg>